<svg width="21" height="20" viewBox="0 0 21 20" fill="none" xmlns="http://www.w3.org/2000/svg">
<path d="M8.83398 9.16667V14.1667M12.1673 9.16667V14.1667M3.83398 5.83333H17.1673M16.334 5.83333L15.6115 15.9517C15.5816 16.3722 15.3934 16.7657 15.0849 17.053C14.7764 17.3403 14.3705 17.5 13.949 17.5H7.05232C6.63077 17.5 6.22487 17.3403 5.91639 17.053C5.6079 16.7657 5.41975 16.3722 5.38982 15.9517L4.66732 5.83333H16.334ZM13.0007 5.83333V3.33333C13.0007 3.11232 12.9129 2.90036 12.7566 2.74408C12.6003 2.5878 12.3883 2.5 12.1673 2.5H8.83398C8.61297 2.5 8.40101 2.5878 8.24473 2.74408C8.08845 2.90036 8.00065 3.11232 8.00065 3.33333V5.83333H13.0007Z" stroke="current" stroke-linecap="round" stroke-linejoin="round"/>
</svg>
